<svg width="79" height="78" viewBox="0 0 79 78" fill="none" xmlns="http://www.w3.org/2000/svg">
<g id="Benefits icon frame">
<g id="SecureByHippa">
<path id="Vector" fill-rule="evenodd" clip-rule="evenodd" d="M39.3273 8.25146C42.0897 8.25146 44.1614 10.3232 44.1614 12.7403C44.1614 14.812 42.7802 16.8838 40.3632 17.229L41.3991 20.682C41.3991 20.682 41.3991 20.682 41.7444 20.3367L44.5067 16.8838C46.5784 14.1214 50.3767 13.4308 53.4843 14.812L74.5471 24.1349C64.8789 29.6595 54.8654 32.7672 45.1973 33.803C47.269 34.8389 48.6502 36.2201 48.6502 37.9465C48.6502 39.673 47.269 41.0542 45.5426 42.09C46.5784 42.7806 47.269 43.8165 47.269 44.8524C47.269 46.2335 46.2332 47.6147 44.5067 48.3053C45.1973 48.9959 45.5426 50.0317 45.5426 51.0676C45.5426 51.7582 45.5426 52.1035 45.1973 52.4488H33.8027C33.4574 52.1035 33.4574 51.4129 33.4574 51.0676C33.4574 50.0317 33.8027 48.9959 34.4932 48.3053C32.7668 47.6147 31.7309 46.2335 31.7309 44.8524C31.7309 43.8165 32.4215 42.7806 33.4574 42.09C31.3856 41.0542 30.3497 39.673 30.3497 37.9465C30.3497 36.2201 31.7309 34.8389 33.8027 33.803C24.1345 32.7672 14.121 29.6595 4.45288 24.1349L25.5157 14.812C28.6233 13.4308 32.4215 14.4667 34.4932 16.8838L37.2556 20.3367C37.2556 20.3367 37.2556 20.3367 37.6009 20.682L38.6367 17.229C36.2197 16.5385 34.4932 14.1214 35.1838 11.7044C35.5291 9.63263 37.2556 8.25146 39.3273 8.25146ZM37.9462 49.6864C36.9103 50.0317 36.565 50.377 36.565 51.0676C36.565 51.7582 37.2556 52.1035 38.2914 52.4488C37.9462 52.4488 37.9462 49.6864 37.9462 49.6864ZM41.0538 49.6864V52.4488C42.0897 52.1035 42.7802 51.7582 42.7802 51.0676C42.4349 50.377 42.0897 50.0317 41.0538 49.6864ZM37.6009 43.4712C35.8744 43.8165 34.8385 44.1618 34.8385 44.8524C34.8385 45.5429 35.8744 45.8882 37.6009 46.2335V43.4712ZM41.3991 43.4712V46.2335C43.1255 45.8882 44.1614 45.5429 44.1614 44.8524C44.1614 44.5071 43.1255 43.8165 41.3991 43.4712ZM37.2556 35.8748C35.1838 36.2201 33.4574 36.9107 33.4574 37.9465C33.4574 38.9824 35.1838 39.673 37.6009 40.0183L37.2556 35.8748ZM41.7444 35.8748V40.3636C44.1614 40.0183 45.8879 39.3277 45.8879 38.2918C45.5426 37.2559 44.1614 36.2201 41.7444 35.8748Z" fill="#233E98"/>
<path id="Vector_2" d="M18.6101 76.9644H72.1303C75.2379 76.9644 78.0002 74.5474 78.0002 71.0945C78.0002 70.7492 78.0002 70.0586 77.655 69.7133L69.0227 35.8748" stroke="#233E98" stroke-width="2" stroke-linecap="round"/>
<path id="Vector_3" d="M60.3901 76.9639H6.86995C3.76233 76.9639 1 74.5468 1 71.0939C1 70.7486 1 70.058 1.34529 69.7128L9.97758 36.2195" stroke="#233E98" stroke-width="2" stroke-linecap="round"/>
<path id="Vector_4" d="M63.8433 12.3946L62.1169 5.48879C61.4263 2.72646 59.0092 1 56.2469 1H22.7536C19.9913 1 17.5743 2.72646 16.8837 5.48879L15.1572 12.3946" stroke="#233E98" stroke-width="2" stroke-linecap="round" stroke-linejoin="round"/>
<path id="Vector_5" d="M15.1573 71.0945V65.5699H19.9913V71.0945H23.4443V57.2829H19.9913V62.8075H15.1573V57.2829H11.7043V71.0945H15.1573ZM29.3142 71.0945V57.2829H25.8613V71.0945H29.3142ZM35.1842 71.0945V66.2604H36.9106C38.2918 66.2604 39.3277 65.9152 40.0182 64.8793C40.7088 63.8434 41.3994 62.8075 41.3994 61.4264C41.3994 60.0452 41.0541 59.0093 40.3635 57.9734C39.673 57.2829 38.2918 56.5923 36.9106 56.5923H31.7312V70.4039H35.1842V71.0945ZM36.22 63.1528H35.1842V60.0452H36.22C36.5653 60.0452 36.9106 60.0452 37.2559 60.3905C37.6012 60.7358 37.6012 61.0811 37.6012 61.4264C37.6012 61.7717 37.6012 62.1169 37.2559 62.4622C37.2559 63.1528 36.9106 63.1528 36.22 63.1528ZM45.1976 71.0945L46.2335 67.9869H50.7223L51.7582 71.0945H55.2111L50.377 57.2829H46.9241L42.09 71.0945C41.7447 71.0945 45.1976 71.0945 45.1976 71.0945ZM49.6864 65.2246H46.9241L48.3052 60.7358L49.6864 65.2246ZM58.664 71.0945L59.6999 67.9869H64.1886L65.2245 71.0945H68.6774L63.8434 57.2829H60.3904L55.5564 71.0945H58.664ZM63.1528 65.2246H60.3904L61.7716 60.7358L63.1528 65.2246Z" fill="#233E98"/>
</g>
</g>
</svg>
