<svg width="79" height="77" viewBox="0 0 79 77" fill="none" xmlns="http://www.w3.org/2000/svg">
<g id="Benefits icon frame">
<g id="24by7- support">
<g id="Group">
<g id="Group_2">
<path id="Vector" d="M66.5708 63.0986C66.3509 61.4996 65.4247 60.1323 64.0292 59.3474L50.7094 51.8551C48.6705 50.7082 46.0912 51.0625 44.4369 52.7167L39.7596 57.394C38.8015 58.3521 37.2675 58.4715 36.191 57.6717C32.9594 55.2706 29.801 52.5333 26.8034 49.5357C23.806 46.5383 21.0687 43.3798 18.6674 40.1482C17.8677 39.0719 17.9871 37.5377 18.9452 36.5796L23.6225 31.9023C25.2768 30.248 25.6311 27.6686 24.4841 25.6298L16.9919 12.31C16.2071 10.9145 14.8399 9.98825 13.2408 9.76853C11.5652 9.53844 9.90569 10.1053 8.68722 11.3242L3.75396 16.2574C0.268805 19.7426 0.0856293 25.982 3.23797 33.8265C6.25345 41.3307 11.9916 49.5409 19.395 56.9443C26.7986 64.348 35.0086 70.086 42.5128 73.1014C46.2286 74.5946 49.5839 75.3393 52.4572 75.3393C55.6497 75.3393 58.2474 74.4197 60.0817 72.5854L65.015 67.6521C66.2338 66.4335 66.8007 64.7738 66.5708 63.0986ZM63.2511 65.8883L62.3889 66.7502L51.0335 60.5564C50.4286 60.2261 49.6711 60.4493 49.3413 61.0542C49.0113 61.6589 49.2342 62.4165 49.8391 62.7464L60.5504 68.5889L58.3176 70.8216C55.6234 73.5157 50.2017 73.5029 43.4427 70.787C36.2436 67.8939 28.3298 62.3516 21.1587 55.1805C13.988 48.0094 8.4454 40.0954 5.55248 32.8964C2.83643 26.1371 2.82379 20.7155 5.51789 18.0214L7.75014 15.7887L8.94424 17.9778C9.17073 18.3928 9.59859 18.628 10.0403 18.628C10.242 18.628 10.4468 18.579 10.6363 18.4756C11.241 18.1456 11.464 17.3879 11.1341 16.7832L9.58912 13.9501L10.451 13.0883C11.0177 12.5219 11.7534 12.2137 12.5148 12.2137C12.6431 12.2137 12.7723 12.2226 12.9013 12.2402C13.7202 12.3527 14.4189 12.8239 14.8177 13.5333L22.3099 26.8531C22.9106 27.9211 22.7251 29.2721 21.8586 30.1385L19.633 32.3643L13.7922 21.6562C13.4624 21.0514 12.7048 20.8284 12.1 21.1584C11.4953 21.4882 11.2723 22.2458 11.6022 22.8506L17.7944 34.2027L17.1814 34.8156C15.3551 36.642 15.1333 39.5742 16.6653 41.636C19.1389 44.9649 21.9563 48.2164 25.0395 51.2997C28.1228 54.383 31.3743 57.2006 34.7032 59.6739C36.7649 61.2061 39.6969 60.9841 41.5235 59.1577L42.1365 58.5447L44.969 60.0897C45.1588 60.1933 45.3633 60.2422 45.565 60.2422C46.0067 60.2422 46.4345 60.007 46.661 59.5919C46.991 58.9872 46.7681 58.2295 46.1632 57.8997L43.9749 56.7059L46.2005 54.4803C47.0669 53.6139 48.418 53.4283 49.4863 54.029L62.8061 61.5211C63.5153 61.9201 63.9866 62.6187 64.0991 63.4376C64.2221 64.3331 63.9131 65.2263 63.2511 65.8883Z" fill="#233E98" stroke="#233E98" stroke-width="0.7"/>
</g>
</g>
<g id="Group_3">
<g id="Group_4">
<path id="Vector_2" d="M60.7876 32.9305H59.3741V22.2039C59.3741 21.5151 58.8157 20.9566 58.1267 20.9566C57.4379 20.9566 56.8794 21.5149 56.8794 22.2039V32.9305H50.3685L52.692 22.4744C52.8414 21.802 52.4174 21.1357 51.7449 20.9863C51.0722 20.8367 50.4063 21.2609 50.2568 21.9333L47.5959 33.9073C47.5138 34.2767 47.6037 34.6632 47.8406 34.9584C48.0773 35.2534 48.4351 35.4252 48.8135 35.4252H56.8792V39.4996C56.8792 40.1884 57.4376 40.7469 58.1266 40.7469C58.8154 40.7469 59.3739 40.1885 59.3739 39.4996V35.425H60.7874C61.4762 35.425 62.0348 34.8666 62.0348 34.1777C62.0348 33.4889 61.4764 32.9305 60.7876 32.9305Z" fill="#233E98" stroke="#233E98" stroke-width="0.7"/>
</g>
</g>
<g id="Group_5">
<g id="Group_6">
<path id="Vector_3" d="M44.8223 38.2522H35.6426C36.1852 36.8234 37.7207 35.9147 39.9354 34.7062C42.6684 33.2147 46.0697 31.3586 46.0697 27.1454C46.0697 23.7329 43.1228 20.9565 39.5006 20.9565C35.8785 20.9565 32.9315 23.7328 32.9315 27.1454C32.9315 27.8342 33.4899 28.3928 34.1789 28.3928C34.8677 28.3928 35.4262 27.8344 35.4262 27.1454C35.4262 25.1084 37.2541 23.4511 39.5006 23.4511C41.7471 23.4511 43.575 25.1082 43.575 27.1454C43.5748 29.6942 41.7485 30.8748 38.7402 32.5163C36.0176 34.0022 32.9314 35.6864 32.9314 39.4994C32.9314 40.1882 33.4898 40.7467 34.1787 40.7467H44.8222C45.511 40.7467 46.0695 40.1884 46.0695 39.4994C46.0695 38.8105 45.5111 38.2522 44.8223 38.2522Z" fill="#233E98" stroke="#233E98" stroke-width="0.7"/>
</g>
</g>
<g id="Group_7">
<g id="Group_8">
<path id="Vector_4" d="M71.1865 52.9113L68.7574 53.397C74.6602 47.6641 78.0001 39.8232 78.0001 31.5168C78.0001 14.6899 64.3103 1 47.4833 1C37.5662 1 28.2324 5.84709 22.5154 13.9661C22.1188 14.5293 22.2539 15.3074 22.8171 15.7041C23.3801 16.1007 24.1583 15.9657 24.555 15.4025C29.8056 7.94609 38.3768 3.49453 47.4834 3.49453C62.9349 3.49453 75.5057 16.0652 75.5057 31.5168C75.5057 39.2558 72.3463 46.5533 66.7766 51.8372L67.3327 49.057C67.4678 48.3815 67.0297 47.7244 66.3541 47.5894C65.6787 47.4542 65.0215 47.8924 64.8865 48.568L63.5561 55.2202C63.4743 55.6291 63.6023 56.0519 63.8972 56.3468C64.1333 56.5829 64.4517 56.7121 64.7791 56.7121C64.8605 56.7121 64.9423 56.7041 65.0238 56.6879L71.676 55.3574C72.3516 55.2222 72.7897 54.5651 72.6546 53.8897C72.519 53.2143 71.8617 52.7765 71.1865 52.9113Z" fill="#233E98" stroke="#233E98" stroke-width="0.7"/>
</g>
</g>
<g id="Group_9">
<g id="Group_10">
<path id="Vector_5" d="M47.4832 6.32178C46.7944 6.32178 46.2358 6.88018 46.2358 7.56912V10.23C46.2358 10.9188 46.7942 11.4773 47.4832 11.4773C48.172 11.4773 48.7305 10.9189 48.7305 10.23V7.56912C48.7304 6.88033 48.1721 6.32178 47.4832 6.32178Z" fill="#233E98" stroke="#233E98" stroke-width="0.7"/>
</g>
</g>
<g id="Group_11">
<g id="Group_12">
<path id="Vector_6" d="M71.4309 30.2698H68.77C68.0813 30.2698 67.5227 30.8282 67.5227 31.5171C67.5227 32.2059 68.0811 32.7645 68.77 32.7645H71.4309C72.1197 32.7645 72.6782 32.2061 72.6782 31.5171C72.6782 30.8282 72.1197 30.2698 71.4309 30.2698Z" fill="#233E98" stroke="#233E98" stroke-width="0.7"/>
</g>
</g>
<g id="Group_13">
<g id="Group_14">
<path id="Vector_7" d="M29.6719 19.7934L27.3677 18.463C26.7709 18.1185 26.0083 18.323 25.6639 18.9195C25.3195 19.5161 25.5239 20.2788 26.1203 20.6232L28.4246 21.9536C28.621 22.067 28.8355 22.1208 29.0471 22.1208C29.4781 22.1208 29.8974 21.897 30.1284 21.497C30.4728 20.9006 30.2684 20.1378 29.6719 19.7934Z" fill="#233E98" stroke="#233E98" stroke-width="0.7"/>
</g>
</g>
<g id="Group_15">
<g id="Group_16">
<path id="Vector_8" d="M68.8463 42.4107L66.542 41.0802C65.9454 40.7357 65.1826 40.9402 64.8382 41.5366C64.4938 42.1331 64.6981 42.896 65.2947 43.2404L67.599 44.5708C67.7954 44.6842 68.0098 44.738 68.2214 44.738C68.6524 44.738 69.0717 44.5142 69.3027 44.1142C69.6473 43.5179 69.4429 42.7551 68.8463 42.4107Z" fill="#233E98" stroke="#233E98" stroke-width="0.7"/>
</g>
</g>
<g id="Group_17">
<g id="Group_18">
<path id="Vector_9" d="M60.0808 9.69739C59.4842 9.35285 58.7214 9.55738 58.377 10.1538L57.0467 12.4581C56.7023 13.0547 56.9067 13.8175 57.5031 14.1619C57.6995 14.2753 57.9138 14.3291 58.1256 14.3291C58.5566 14.3291 58.9759 14.1053 59.2069 13.7053L60.5374 11.401C60.8818 10.8047 60.6774 10.0418 60.0808 9.69739Z" fill="#233E98" stroke="#233E98" stroke-width="0.7"/>
</g>
</g>
<g id="Group_19">
<g id="Group_20">
<path id="Vector_10" d="M37.4631 48.8717C36.8665 48.5272 36.1039 48.7317 35.7594 49.3281L34.429 51.6324C34.0846 52.229 34.289 52.9918 34.8855 53.3362C35.0819 53.4496 35.2963 53.5034 35.5079 53.5034C35.9389 53.5034 36.3582 53.2797 36.5892 52.8796L37.9197 50.5753C38.2641 49.9789 38.0597 49.2161 37.4631 48.8717Z" fill="#233E98" stroke="#233E98" stroke-width="0.7"/>
</g>
</g>
<g id="Group_21">
<g id="Group_22">
<path id="Vector_11" d="M69.3028 18.9192C68.9584 18.3226 68.1953 18.1183 67.599 18.4628L65.2947 19.7933C64.6981 20.1377 64.4938 20.9005 64.8383 21.4971C65.0693 21.8973 65.4886 22.1209 65.9196 22.1209C66.1312 22.1209 66.3457 22.0671 66.5421 21.9537L68.8464 20.6233C69.4428 20.2786 69.6472 19.5157 69.3028 18.9192Z" fill="#233E98" stroke="#233E98" stroke-width="0.7"/>
</g>
</g>
<g id="Group_23">
<g id="Group_24">
<path id="Vector_12" d="M30.1282 41.5367C29.7838 40.9401 29.0209 40.7356 28.4245 41.0803L26.1202 42.4108C25.5236 42.7552 25.3192 43.518 25.6637 44.1146C25.8947 44.5148 26.314 44.7384 26.745 44.7384C26.9566 44.7384 27.1711 44.6846 27.3675 44.5712L29.6718 43.2408C30.2682 42.8961 30.4726 42.1332 30.1282 41.5367Z" fill="#233E98" stroke="#233E98" stroke-width="0.7"/>
</g>
</g>
<g id="Group_25">
<g id="Group_26">
<path id="Vector_13" d="M37.9199 12.4582L36.5896 10.154C36.2452 9.55721 35.4822 9.35283 34.8858 9.69753C34.2892 10.0419 34.0848 10.8049 34.4294 11.4013L35.7599 13.7056C35.991 14.1058 36.4103 14.3294 36.8412 14.3294C37.0528 14.3294 37.2672 14.2756 37.4636 14.1622C38.0599 13.8176 38.2643 13.0547 37.9199 12.4582Z" fill="#233E98" stroke="#233E98" stroke-width="0.7"/>
</g>
</g>
<g id="Group_27">
<g id="Group_28">
<path id="Vector_14" d="M60.5374 51.6325L59.207 49.3282C58.8626 48.7316 58.0997 48.5272 57.5032 48.8717C56.9066 49.2161 56.7022 49.9789 57.0468 50.5755L58.3771 52.8798C58.6081 53.28 59.0274 53.5036 59.4585 53.5036C59.6701 53.5036 59.8845 53.4498 60.0809 53.3364C60.6774 52.9918 60.8818 52.2291 60.5374 51.6325Z" fill="#233E98" stroke="#233E98" stroke-width="0.7"/>
</g>
</g>
</g>
</g>
</svg>
