<svg width="77" height="79" viewBox="0 0 77 79" fill="none" xmlns="http://www.w3.org/2000/svg">
<g id="Benefits icon frame">
<g id="Group">
<g id="Group_2">
<g id="Group_3">
<path id="Vector" d="M72.9998 52.3724C72.4534 50.8766 71.2906 49.7188 69.8093 49.1956C68.3292 48.6726 66.7099 48.8359 65.368 49.643L52.368 57.4431L50.5798 58.2093H41.1995C41.0846 58.2093 41.0204 58.1451 40.9869 58.0912C40.9534 58.0373 40.9239 57.9513 40.9748 57.8484C41.0037 57.7895 41.0536 57.7449 41.1153 57.723L48.2336 55.1793C50.9881 54.2537 52.5665 51.4356 51.8281 48.7574C51.4406 47.3518 50.5208 46.2016 49.2382 45.5186C47.9755 44.846 46.4736 44.7206 45.1195 45.1742L37.7744 47.622L18.4879 48.9081C17.2216 48.9926 16.0302 49.5332 15.133 50.4304L4.6417 60.9215C2.62906 62.9342 2.44263 66.1266 4.21712 68.1893C4.6861 68.7346 6.70755 70.6716 9.73765 73.5646C11.5035 75.2505 13.1712 76.8427 13.963 77.6345C14.2055 77.877 14.5248 77.9999 14.8454 77.9999C15.1278 77.9999 15.4114 77.9042 15.6437 77.7108L21.406 72.9087C22.6141 71.9019 24.1454 71.3476 25.7179 71.3476H45.4456C46.1597 71.3476 46.8547 71.2051 47.5111 70.9237L56.8221 66.9332C56.8481 66.922 56.8737 66.9101 56.8986 66.8973L57.3713 66.6556C57.3964 66.6428 57.4212 66.6292 57.4451 66.6145L70.6307 58.7032C72.8557 57.3681 73.8519 54.7057 72.9998 52.3724ZM69.3473 56.564L56.198 64.4536L55.8005 64.6568L46.5284 68.6307C46.1844 68.7782 45.8198 68.8529 45.4455 68.8529H25.718C23.563 68.8529 21.4646 69.6125 19.8092 70.9922L14.9138 75.0717C14.019 74.2029 12.7664 73.007 11.4604 71.7602C9.26485 69.6641 6.53243 67.0556 6.10819 66.5623C5.1955 65.5015 5.32887 63.7622 6.40571 62.6854L16.897 52.1941C17.3666 51.7243 17.9906 51.4413 18.6537 51.397L38.0999 50.1003C38.206 50.0933 38.3106 50.0727 38.4112 50.0391L45.9096 47.54C46.1963 47.4441 46.49 47.3965 46.7822 47.3965C47.2239 47.3965 47.6618 47.5053 48.0654 47.7201C48.7373 48.078 49.2194 48.6817 49.423 49.4203C49.8035 50.8003 48.9098 52.3242 47.4308 52.8171C47.4223 52.8199 47.4139 52.8229 47.4057 52.8259L40.2758 55.3737C39.6001 55.6152 39.0535 56.1028 38.7365 56.7468C38.3151 57.6036 38.3646 58.5989 38.8692 59.4095C39.3738 60.2201 40.2449 60.7038 41.1997 60.7038H50.8359C51.0049 60.7038 51.172 60.6696 51.3272 60.6031L53.4285 59.7027C53.4804 59.6806 53.5306 59.6548 53.5788 59.6259L66.6525 51.7815C67.355 51.3588 68.2023 51.2739 68.9785 51.5479C69.7663 51.8263 70.3623 52.423 70.6565 53.2284C71.0922 54.4208 70.5293 55.8549 69.3473 56.564Z" fill="#233E98" stroke="#233E98" stroke-width="0.7"/>
<path id="Vector_2" d="M48.1529 40.7472C59.1113 40.7472 68.0265 31.832 68.0265 20.8736C68.0265 9.91518 59.1113 1 48.1529 1C37.1945 1 28.2793 9.91518 28.2793 20.8736C28.2793 31.832 37.1945 40.7472 48.1529 40.7472ZM48.1529 3.49459C57.7356 3.49459 65.5319 11.2907 65.5319 20.8736C65.5319 30.4565 57.7356 38.2526 48.1529 38.2526C38.5702 38.2526 30.7739 30.4565 30.7739 20.8736C30.7739 11.2907 38.5702 3.49459 48.1529 3.49459Z" fill="#233E98" stroke="#233E98" stroke-width="0.7"/>
<path id="Vector_3" d="M41.4174 25.5301C41.4174 24.8413 40.8592 24.2828 40.1701 24.2828C39.4811 24.2828 38.9229 24.8413 38.9229 25.5301C38.9229 27.9418 41.0755 29.9715 44.2447 30.8967V31.5172C44.2447 32.206 44.8029 32.7645 45.492 32.7645C46.181 32.7645 46.7392 32.206 46.7392 31.5172V31.368C47.1993 31.4114 47.6711 31.434 48.1529 31.434C48.6346 31.434 49.1065 31.4114 49.5665 31.368V31.5172C49.5665 32.206 50.1247 32.7645 50.8138 32.7645C51.5028 32.7645 52.0611 32.206 52.0611 31.5172V30.8967C55.2302 29.9715 57.3829 27.9419 57.3829 25.5301C57.3829 23.1184 55.2302 21.0888 52.0611 20.1636V13.4741C53.8206 14.1432 54.8883 15.2153 54.8883 16.217C54.8883 16.9058 55.4466 17.4643 56.1356 17.4643C56.8246 17.4643 57.3829 16.9058 57.3829 16.217C57.3829 13.8054 55.2302 11.7756 52.0611 10.8505V10.23C52.0611 9.54112 51.5028 8.98267 50.8138 8.98267C50.1247 8.98267 49.5665 9.54112 49.5665 10.23V10.3791C49.1065 10.3357 48.6346 10.3131 48.1529 10.3131C47.6711 10.3131 47.1993 10.3357 46.7392 10.3791V10.23C46.7392 9.54112 46.181 8.98267 45.492 8.98267C44.8029 8.98267 44.2447 9.54112 44.2447 10.23V10.8505C41.0755 11.7756 38.9229 13.8052 38.9229 16.217C38.9229 18.6288 41.0755 20.6584 44.2447 21.5835V28.273C42.4851 27.604 41.4174 26.5316 41.4174 25.5301ZM52.0611 22.7873C53.8206 23.4563 54.8883 24.5285 54.8883 25.5301C54.8883 26.5318 53.8206 27.604 52.0611 28.273V22.7873ZM46.7392 12.8865C47.1901 12.8353 47.6622 12.8077 48.1529 12.8077C48.6435 12.8077 49.1156 12.8353 49.5665 12.8865V19.6923C49.1065 19.6489 48.6346 19.6263 48.1529 19.6263C47.6622 19.6263 47.1901 19.5987 46.7392 19.5474V12.8865ZM46.7392 22.0548C47.1993 22.0982 47.6711 22.1209 48.1529 22.1209C48.6435 22.1209 49.1156 22.1485 49.5665 22.1997V28.8606C49.1156 28.9118 48.6435 28.9394 48.1529 28.9394C47.6622 28.9394 47.1901 28.9118 46.7392 28.8606V22.0548ZM41.4174 16.217C41.4174 15.2155 42.4851 14.1432 44.2447 13.4741V18.9597C42.4851 18.2908 41.4174 17.2185 41.4174 16.217Z" fill="#233E98" stroke="#233E98" stroke-width="0.7"/>
</g>
</g>
</g>
</g>
</svg>
