<svg width="77" height="77" viewBox="0 0 77 77" fill="none" xmlns="http://www.w3.org/2000/svg">
<g id="Benefits icon frame">
<g id="Improve Effeciency">
<path id="Vector" d="M76.4248 40.0538C74.9952 30.5868 70.03 22.0137 62.5301 16.0624C55.6628 10.7286 47.1868 7.88691 38.4923 8.00345C30.4375 8.16667 22.5965 10.625 15.8903 15.0897C11.1342 18.3867 7.22443 22.7609 4.4798 27.8558C1.73516 32.9507 0.233315 38.622 0.0966679 44.4075C-0.478101 52.27 1.52153 60.1059 5.79348 66.7316C6.4382 67.5644 7.26733 68.2362 8.21565 68.6943C9.16397 69.1524 10.2056 69.3842 11.2587 69.3716C12.2773 69.3729 13.2856 69.1681 14.2229 68.7695C15.6526 68.1189 16.7974 66.9714 17.4448 65.5403C18.0922 64.1092 18.1981 62.4918 17.7429 60.9885C17.7688 60.8352 17.7688 60.6786 17.7429 60.5253C17.7429 60.5253 10.3324 46.6306 17.2334 34.7275L17.1871 34.3107C19.23 30.4628 22.3069 27.262 26.0712 25.0689C29.8355 22.8758 34.1374 21.7777 38.4923 21.8981C42.8136 21.978 47.043 23.16 50.7796 25.3322C54.5162 27.5045 57.6361 30.5949 59.8438 34.3107C62.6992 39.2689 63.6539 45.0963 62.5301 50.7064L39.3723 41.9991C39.1522 41.8706 38.9068 41.7915 38.653 41.7671C38.3993 41.7428 38.1434 41.7739 37.9028 41.8582C37.6623 41.9425 37.443 42.0781 37.26 42.2555C37.077 42.4329 36.9347 42.6479 36.843 42.8857C36.7513 43.1235 36.7123 43.3784 36.7287 43.6327C36.7452 43.8871 36.8167 44.1348 36.9383 44.3588C37.0599 44.5828 37.2287 44.7777 37.4331 44.9301C37.6374 45.0824 37.8724 45.1886 38.1218 45.2412L61.6501 53.9948C61.2193 55.5871 60.6458 57.1372 59.9364 58.6264C59.3787 59.5667 59.0318 60.617 58.9199 61.7046C58.8079 62.7921 58.9335 63.891 59.288 64.9253C59.5831 65.7475 60.0435 66.5005 60.641 67.1378C61.2384 67.7751 61.9602 68.2831 62.7617 68.6305C65.7722 69.8811 69.9406 70.02 72.9511 63.5358C76.6233 56.2918 77.8424 48.0508 76.4248 40.0538ZM14.4082 61.7295C14.6309 62.4256 14.5885 63.1794 14.2893 63.8462C13.9901 64.513 13.4552 65.0457 12.7871 65.3421C12.09 65.6822 11.2982 65.7757 10.5411 65.6075C9.78391 65.4392 9.10621 65.0191 8.61873 64.4158C4.86029 58.552 3.09012 51.6337 3.57034 44.6854C3.9374 39.7165 5.19234 34.8536 7.27558 30.3276L13.4356 33.9402C11.5036 38.3487 10.588 43.1353 10.7563 47.9456C10.9247 52.756 12.1728 57.4668 14.4082 61.7295ZM15.3345 30.9297L8.94294 27.317C11.3907 23.6496 14.5386 20.5017 18.2061 18.0539C23.814 14.2805 30.3139 12.0446 37.0565 11.5697V18.4708C32.6883 18.5912 28.418 19.7922 24.6274 21.9663C20.8368 24.1404 17.644 27.22 15.3345 30.9297ZM40.5302 18.4708V11.5234C47.6843 11.7812 54.5739 14.2939 60.2143 18.7023C63.2684 21.1716 65.9105 24.1107 68.0416 27.4097L61.6501 30.976C59.2462 27.4546 56.0941 24.5077 52.4191 22.3459C48.7442 20.1842 44.637 18.8609 40.3912 18.4708H40.5302ZM69.8943 62.1C67.6711 66.7316 65.2627 66.0369 64.1974 65.4811C63.4789 65.1468 62.9154 64.5502 62.6227 63.8137C62.4582 63.2184 62.4145 62.5962 62.494 61.9838C62.5736 61.3713 62.7748 60.781 63.0859 60.2474C63.8649 58.7676 64.5007 57.2167 64.9848 55.6159L66.3279 56.1253C66.5419 56.169 66.7624 56.169 66.9764 56.1253C67.3303 56.1125 67.6727 55.9959 67.9609 55.7901C68.2492 55.5842 68.4705 55.2981 68.5974 54.9674C68.7488 54.5371 68.7272 54.0647 68.5371 53.65C68.3471 53.2353 68.0033 52.9105 67.5785 52.7443L65.8185 52.0959C67.0976 46.0602 66.3317 39.7705 63.6416 34.2181L69.7553 30.7444C71.365 33.933 72.4593 37.3564 72.9974 40.8875C74.2679 48.1081 73.1798 55.5459 69.8943 62.1Z" fill="#233E98"/>
<path id="Vector_2" d="M28.627 27.3635C28.3118 27.3543 28.0011 27.44 27.7351 27.6095C27.4692 27.7789 27.2602 28.0243 27.1354 28.3139C27.0105 28.6034 26.9754 28.9238 27.0347 29.2335C27.0939 29.5433 27.2448 29.828 27.4678 30.051C27.6908 30.274 27.9756 30.4249 28.2853 30.4842C28.595 30.5435 28.9154 30.5084 29.205 30.3835C29.4945 30.2586 29.7399 30.0497 29.9094 29.7837C30.0788 29.5178 30.1645 29.2071 30.1554 28.8919C30.1437 28.4902 29.979 28.1082 29.6948 27.824C29.4107 27.5399 29.0287 27.3751 28.627 27.3635Z" fill="#233E98"/>
<path id="Vector_3" d="M48.4039 30.3276C49.248 30.3276 49.9323 29.6433 49.9323 28.7992C49.9323 27.955 49.248 27.2708 48.4039 27.2708C47.5598 27.2708 46.8755 27.955 46.8755 28.7992C46.8755 29.6433 47.5598 30.3276 48.4039 30.3276Z" fill="#233E98"/>
<path id="Vector_4" d="M60.9554 46.4453C60.9646 46.132 60.8802 45.8231 60.7128 45.5581C60.5455 45.2932 60.3029 45.0841 60.0161 44.9578C59.7293 44.8315 59.4113 44.7936 59.1029 44.849C58.7944 44.9045 58.5095 45.0507 58.2846 45.269C58.0597 45.4872 57.9051 45.7676 57.8405 46.0743C57.7759 46.381 57.8042 46.6999 57.9219 46.9904C58.0396 47.2808 58.2413 47.5296 58.5012 47.7047C58.7611 47.8799 59.0673 47.9735 59.3807 47.9737C59.7904 47.9739 60.1841 47.8143 60.4781 47.5289C60.7722 47.2436 60.9434 46.8548 60.9554 46.4453Z" fill="#233E98"/>
<path id="Vector_5" d="M18.0207 44.917C17.7205 44.9261 17.4297 45.0234 17.1845 45.1968C16.9393 45.3701 16.7507 45.6119 16.6421 45.8919C16.5334 46.1718 16.5097 46.4776 16.5738 46.7709C16.6379 47.0643 16.787 47.3323 17.0025 47.5414C17.218 47.7506 17.4903 47.8916 17.7854 47.9469C18.0806 48.0022 18.3855 47.9694 18.6621 47.8525C18.9387 47.7356 19.1747 47.5398 19.3407 47.2895C19.5067 47.0393 19.5953 46.7457 19.5954 46.4454C19.5955 46.2407 19.5545 46.0381 19.4748 45.8496C19.3951 45.6611 19.2784 45.4905 19.1315 45.3479C18.9846 45.2054 18.8106 45.0938 18.6198 45.0197C18.429 44.9457 18.2253 44.9108 18.0207 44.917Z" fill="#233E98"/>
</g>
</g>
</svg>
