<svg width="1920" height="435" viewBox="0 0 1920 435" fill="none" xmlns="http://www.w3.org/2000/svg">
<mask id="mask0_988_2926" style="mask-type:alpha" maskUnits="userSpaceOnUse" x="0" y="0" width="1920" height="435">
<rect width="1920" height="435" fill="#D9D9D9"/>
</mask>
<g mask="url(#mask0_988_2926)">
<g filter="url(#filter0_d_988_2926)">
<path d="M-94.0871 239.774L-203.372 304.126C-224.828 316.76 -238 339.802 -238 364.702C-238 403.527 -206.527 435 -167.702 435H2085.88C2125.44 435 2157.5 402.935 2157.5 363.381C2157.5 339.141 2145.24 316.546 2124.91 303.335L1980.52 209.471C1873.76 140.073 1737.73 134.129 1625.33 193.951L1517 251.605C1429.76 298.033 1326.96 305.418 1233.98 271.936L953.32 170.868C874.71 142.56 788.566 143.308 710.459 172.976L514.336 247.47C443.374 274.424 365.573 277.577 292.662 256.454L135.455 210.909C58.2287 188.536 -24.8045 198.977 -94.0871 239.774Z" fill="url(#paint0_linear_988_2926)"/>
</g>
</g>
<defs>
<filter id="filter0_d_988_2926" x="-282" y="98.1677" width="2483.5" height="372.832" filterUnits="userSpaceOnUse" color-interpolation-filters="sRGB">
<feFlood flood-opacity="0" result="BackgroundImageFix"/>
<feColorMatrix in="SourceAlpha" type="matrix" values="0 0 0 0 0 0 0 0 0 0 0 0 0 0 0 0 0 0 127 0" result="hardAlpha"/>
<feOffset dy="-8"/>
<feGaussianBlur stdDeviation="22"/>
<feComposite in2="hardAlpha" operator="out"/>
<feColorMatrix type="matrix" values="0 0 0 0 0.289983 0 0 0 0 0 0 0 0 0 0.441667 0 0 0 0.29 0"/>
<feBlend mode="normal" in2="BackgroundImageFix" result="effect1_dropShadow_988_2926"/>
<feBlend mode="normal" in="SourceGraphic" in2="effect1_dropShadow_988_2926" result="shape"/>
</filter>
<linearGradient id="paint0_linear_988_2926" x1="1003.25" y1="97" x2="1003.25" y2="435" gradientUnits="userSpaceOnUse">
<stop stop-color="#722E92"/>
<stop offset="0.46" stop-color="#6E2E92"/>
<stop offset="1" stop-color="#2E3290"/>
</linearGradient>
</defs>
</svg>
