<svg width="9" height="9" viewBox="0 0 9 9" fill="none" xmlns="http://www.w3.org/2000/svg">
<path id="+" d="M3.85827 8.75C3.74582 8.75 3.6487 8.71395 3.56691 8.64185C3.49535 8.55946 3.45957 8.46161 3.45957 8.34831V5.69101H0.898699C0.786245 5.69101 0.689126 5.65496 0.607342 5.58286C0.535781 5.50047 0.5 5.40262 0.5 5.28933V3.88343C0.5 3.77013 0.535781 3.67743 0.607342 3.60534C0.689126 3.52294 0.786245 3.48174 0.898699 3.48174H3.45957V0.901686C3.45957 0.788389 3.49535 0.695693 3.56691 0.623596C3.6487 0.541199 3.74582 0.5 3.85827 0.5H5.4224C5.53485 0.5 5.62686 0.541199 5.69842 0.623596C5.7802 0.695693 5.8211 0.788389 5.8211 0.901686V3.48174H8.3513C8.46375 3.48174 8.55576 3.52294 8.62732 3.60534C8.70911 3.67743 8.75 3.77013 8.75 3.88343V5.28933C8.75 5.40262 8.70911 5.50047 8.62732 5.58286C8.55576 5.65496 8.46375 5.69101 8.3513 5.69101H5.8211V8.34831C5.8211 8.46161 5.7802 8.55946 5.69842 8.64185C5.62686 8.71395 5.53485 8.75 5.4224 8.75H3.85827Z" fill="white"/>
</svg>
