<svg width="167" height="168" viewBox="0 0 167 168" fill="none" xmlns="http://www.w3.org/2000/svg">
<g opacity="0.1" clip-path="url(#clip0_148_342)">
<path fill-rule="evenodd" clip-rule="evenodd" d="M142.64 18.2486C148.548 12.6243 154.415 6.95954 160.283 1.2948C160 0.890173 159.676 0.445087 159.352 0.0404624C153.547 0.0404624 147.739 0.0429902 141.929 0.0455186C124.496 0.0531058 107.052 0.060698 89.6305 0C80.6877 0 71.8258 0.566474 63.1258 2.87283C37.1471 9.79191 18.4117 25.5318 7.60752 50.0116C-3.43948 75.0578 -2.54925 100.266 10.6019 124.26C24.6029 149.792 46.4946 164.439 75.751 167.514C78.7454 167.798 79.6356 166.624 79.5142 163.792C79.3524 159.948 79.3928 156.064 79.5547 152.179C79.6761 149.913 79.0691 148.861 76.6007 148.578C69.5193 147.809 62.7616 145.786 56.3681 142.671C26.1811 128.023 11.5731 93.6301 23.389 61.8671C33.3434 35 56.6514 19.5838 85.3008 19.4624C95.1278 19.4162 104.942 19.4228 114.757 19.4294C122.119 19.4344 129.483 19.4393 136.853 19.422C137.187 19.422 137.527 19.4334 137.869 19.445C139.556 19.502 141.294 19.5608 142.64 18.2486ZM124.496 35.2064C125.97 33.7896 127.445 32.3717 128.922 30.9537C128.76 30.7312 128.588 30.5087 128.417 30.2862C128.245 30.0636 128.073 29.841 127.911 29.6185C123.484 29.6185 119.057 29.5944 114.631 29.5703C103.886 29.5118 93.1466 29.4533 82.4277 29.7399C73.6468 29.9826 65.2705 32.3699 57.3798 36.6994C39.5751 46.5318 27.0308 71.2139 32.5341 93.6705C37.5923 114.711 53.3737 129.48 73.5658 134.052C79.2714 135.347 79.9189 134.538 79.9189 128.751C79.9189 127.843 79.8946 126.934 79.8704 126.027C79.8179 124.066 79.7657 122.11 79.9594 120.173C80.3235 116.572 78.7454 115.156 75.3463 114.387C60.617 111.11 50.6625 98 50.6625 82.341C50.6625 66.9248 60.9812 53.3699 75.3059 50.1734C81.7023 48.7492 88.1651 48.9159 94.6305 49.0826C98.2677 49.1764 101.906 49.2703 105.533 49.0809C105.996 49.0599 106.477 49.088 106.962 49.1163C108.347 49.197 109.766 49.2798 110.875 48.2312C115.427 43.9241 119.955 39.5709 124.496 35.2064Z" fill="url(#paint0_linear_148_342)"/>
<path fill-rule="evenodd" clip-rule="evenodd" d="M161.784 2.58984V7.32395C161.784 15.8903 161.783 24.4556 161.781 33.0201V33.0223C161.776 75.8331 161.77 118.625 161.905 161.445C161.905 166.179 160.772 167.919 155.795 167.838C155.598 167.836 155.405 167.834 155.214 167.832C148.781 167.757 145.518 167.719 143.862 166.068C142.158 164.369 142.158 160.96 142.158 154.041C142.174 145.507 142.192 136.972 142.21 128.436L142.21 128.404V128.402C142.281 94.1677 142.352 59.9178 142.32 25.6939C142.32 22.5783 143.008 20.0696 145.193 18.006C148.198 15.2046 151.203 12.4157 154.285 9.55497L154.287 9.55345C156.725 7.29116 159.211 4.98389 161.784 2.58984ZM130.342 32.3702C130.342 36.5289 130.347 40.683 130.351 44.8327C130.36 53.1185 130.369 61.3863 130.342 69.6361C130.309 78.0447 130.267 86.4533 130.225 94.8619C130.112 117.286 130 139.709 130.059 162.133C130.059 166.705 128.643 167.838 124.313 167.798L123.837 167.794C117.444 167.737 114.224 167.708 112.608 166.084C110.97 164.437 110.98 161.149 111 154.528L111 154.526C111.03 146.453 111.065 138.377 111.101 130.299C111.207 106.032 111.313 81.7533 111.283 57.4974C111.283 52.8038 112.092 49.0408 115.775 45.8847C119.243 42.9283 122.531 39.7923 125.935 36.5466L125.935 36.5464C127.376 35.1722 128.838 33.7784 130.342 32.3702ZM99.1807 81.7448C99.1823 74.7763 99.184 67.763 99.184 60.6939C97.6157 62.1164 96.1188 63.4862 94.6692 64.8127C90.8821 68.2782 87.4178 71.4484 83.8476 74.4916C81.2983 76.6766 80.3676 78.9829 80.3676 82.3413C80.4526 99.1058 80.3988 115.85 80.345 132.603C80.3219 139.787 80.2988 146.973 80.2867 154.162C80.2666 161.196 80.2565 164.716 82.0113 166.443C83.7897 168.194 87.3808 168.102 94.6114 167.96C98.0509 167.879 99.2649 166.827 99.2649 163.266C99.1679 136.345 99.1742 109.398 99.1807 81.7448Z" fill="url(#paint1_linear_148_342)"/>
</g>
<defs>
<linearGradient id="paint0_linear_148_342" x1="80.1274" y1="0" x2="80.1274" y2="167.556" gradientUnits="userSpaceOnUse">
<stop stop-color="#243E98"/>
<stop offset="0.708091" stop-color="#712F92"/>
</linearGradient>
<linearGradient id="paint1_linear_148_342" x1="121.094" y1="2.58984" x2="121.094" y2="168.029" gradientUnits="userSpaceOnUse">
<stop offset="0.336687" stop-color="#722E92"/>
<stop offset="1" stop-color="#233E98"/>
</linearGradient>
<clipPath id="clip0_148_342">
<rect width="167" height="168" fill="white"/>
</clipPath>
</defs>
</svg>
